<?xml version="1.0" encoding="UTF-8"?>
<!DOCTYPE svg PUBLIC "-//W3C//DTD SVG 1.1//EN" "http://www.w3.org/Graphics/SVG/1.1/DTD/svg11.dtd">
<!-- Creator: CorelDRAW 2017 -->
<svg xmlns="http://www.w3.org/2000/svg" xml:space="preserve" width="1in" height="1in" version="1.1" style="shape-rendering:geometricPrecision; text-rendering:geometricPrecision; image-rendering:optimizeQuality; fill-rule:evenodd; clip-rule:evenodd"
viewBox="0 0 1000 1000"
 xmlns:xlink="http://www.w3.org/1999/xlink">
 <defs>
  <style type="text/css">
   <![CDATA[
    .fil0 {fill:#FEFEFE}
   ]]>
  </style>
 </defs>
 <g id="Layer_x0020_1">
  <metadata id="CorelCorpID_0Corel-Layer"/>
  <g id="_3280931734304">
   <path class="fil0" d="M50 370l0 13 2 24c2,22 7,46 12,67 12,56 27,110 48,163 10,25 20,54 42,64 14,6 31,5 44,-2 11,-6 19,-17 26,-27 14,-21 28,-43 41,-64 2,-3 10,-10 14,-13 12,-9 28,-10 38,1 7,7 6,11 10,16 14,21 27,43 41,64 7,10 15,21 26,27 13,7 30,6 44,1 22,-9 32,-37 43,-62 14,-33 24,-64 33,-99 2,-7 3,-14 5,-21 11,-40 25,-92 26,-132 2,-37 -7,-59 -36,-69 -7,-2 -14,-4 -21,-6 -46,-11 -109,-13 -157,-14 -3,0 -10,0 -12,0l-48 0c-2,1 -15,0 -18,0 -42,1 -147,4 -177,22 -27,15 -23,42 -25,48z"/>
   <path class="fil0" d="M750 716l69 0c2,-1 9,-2 12,-2 39,-8 78,-25 102,-57 7,-9 18,-27 10,-43 -3,-6 -9,-13 -13,-16 -15,-11 -31,-1 -44,5 -7,3 -14,6 -21,7 -39,10 -86,5 -110,-25 -9,-11 -16,-23 -20,-38 -2,-6 -4,-20 -2,-26 2,-8 12,2 17,5 21,13 47,15 72,15 60,0 113,-36 123,-95 1,-3 1,-11 2,-13l0 -11 -2 -16c-1,-5 -2,-9 -3,-14 -8,-25 -24,-43 -45,-58 -26,-19 -65,-30 -104,-33 -48,-3 -99,6 -139,32 -7,5 -13,9 -20,14 -12,10 -23,21 -33,36 -41,59 -45,147 -12,218 15,33 38,57 63,75 13,9 28,17 45,24 8,3 17,6 26,8 5,1 9,2 14,3l14 3z"/>
  </g>
 </g>
</svg>
