<?xml version="1.0" encoding="UTF-8"?>
<!DOCTYPE svg PUBLIC "-//W3C//DTD SVG 1.1//EN" "http://www.w3.org/Graphics/SVG/1.1/DTD/svg11.dtd">
<!-- Creator: CorelDRAW 2017 -->
<svg xmlns="http://www.w3.org/2000/svg" xml:space="preserve" width="1in" height="1in" version="1.1" style="shape-rendering:geometricPrecision; text-rendering:geometricPrecision; image-rendering:optimizeQuality; fill-rule:evenodd; clip-rule:evenodd"
viewBox="0 0 1000 1000"
 xmlns:xlink="http://www.w3.org/1999/xlink">
 <defs>
  <style type="text/css">
   <![CDATA[
    .fil0 {fill:#17181A}
   ]]>
  </style>
 </defs>
 <g id="Layer_x0020_1">
  <metadata id="CorelCorpID_0Corel-Layer"/>
  <path class="fil0" d="M691 649c-161,0 -182,-218 -47,-259 68,-21 153,3 161,66 5,40 -19,63 -45,75 -15,7 -33,9 -51,7 -30,-3 -33,-11 -45,-16 -5,28 21,52 42,58 37,11 63,-12 79,-11 22,1 28,32 -9,58 -22,15 -54,21 -85,21zm-478 -220c0,-38 21,-39 54,-44 48,-7 240,-16 263,17 17,24 -5,110 -13,138 -6,22 -13,43 -21,62 -8,19 -14,42 -35,46 -32,6 -43,-24 -65,-58 -31,-47 -43,9 -73,46 -8,9 -27,17 -43,9 -12,-6 -17,-19 -23,-33 -20,-43 -45,-132 -45,-184zm188 -391l-12 4c-4,1 -8,2 -12,3 -8,2 -14,3 -22,5 -60,16 -101,42 -117,47l-46 33c-16,13 -28,23 -42,37 -4,5 -6,7 -10,11 -19,24 -24,28 -43,57 -3,4 -11,21 -14,23l-24 57c-1,3 -2,6 -3,9l-5 9c0,7 -2,14 -5,20 -11,52 -21,98 -20,156 2,93 14,170 55,251 19,37 44,73 72,102 10,10 19,16 21,22 7,2 21,15 32,22 12,8 20,13 33,21 125,74 311,84 445,41 86,-28 142,-65 196,-126 51,-56 86,-141 100,-219 11,-65 12,-132 3,-199 -4,-32 -12,-59 -20,-88 -8,-28 -26,-62 -31,-77 -4,-2 -13,-22 -18,-29 -7,-10 -14,-19 -19,-28l-66 -69c-7,-4 -16,-12 -23,-17 -8,-5 -14,-10 -22,-15 -14,-9 -32,-19 -50,-26l-32 -14 -58 -16 -38 -8c0,-1 -1,0 -2,-1 -11,2 -37,-3 -52,-4 -41,-2 -63,-2 -105,1 -16,1 -35,8 -49,5z"/>
 </g>
</svg>
